<?xml version="1.0" encoding="UTF-8" standalone="no"?>
<!DOCTYPE svg PUBLIC "-//W3C//DTD SVG 1.1//EN" "http://www.w3.org/Graphics/SVG/1.1/DTD/svg11.dtd">
<svg width="100%" height="100%" viewBox="0 0 2478 3507" version="1.1" xmlns="http://www.w3.org/2000/svg" xmlns:xlink="http://www.w3.org/1999/xlink" xml:space="preserve" xmlns:serif="http://www.serif.com/" style="fill-rule:evenodd;clip-rule:evenodd;stroke-linecap:round;stroke-linejoin:round;stroke-miterlimit:1.5;">
    <g id="G-7" serif:id="G 7" transform="matrix(1.39914,0,0,1.4001,-413.525,-250.977)">
        <g id="_25" serif:id="25" transform="matrix(1,0,0,1,1062.99,1840.48)">
            <g transform="matrix(6.12323e-17,1,-1,6.12323e-17,1122.05,-306.859)">
                <path d="M511.432,413.386L613.719,354.331L716.005,413.386L716.005,531.496L613.719,590.551L511.432,531.496L511.432,413.386Z" style="fill:none;stroke:black;stroke-width:2.98px;"/>
            </g>
            <g transform="matrix(6.12323e-17,1,-1,6.12323e-17,1299.21,-204.573)">
                <path d="M511.432,413.386L613.719,354.331L716.005,413.386L716.005,531.496L613.719,590.551L511.432,531.496L511.432,413.386Z" style="fill:none;stroke:black;stroke-width:2.98px;"/>
            </g>
            <g transform="matrix(6.12323e-17,1,-1,6.12323e-17,1122.05,-102.286)">
                <path d="M511.432,413.386L613.719,354.331L716.005,413.386L716.005,531.496L613.719,590.551L511.432,531.496L511.432,413.386Z" style="fill:none;stroke:black;stroke-width:2.98px;"/>
            </g>
            <g transform="matrix(6.12323e-17,1,-1,6.12323e-17,944.882,-7.95808e-13)">
                <path d="M511.432,413.386L613.719,354.331L716.005,413.386L716.005,531.496L613.719,590.551L511.432,531.496L511.432,413.386Z" style="fill:none;stroke:black;stroke-width:2.98px;"/>
            </g>
            <g transform="matrix(6.12323e-17,1,-1,6.12323e-17,1122.05,102.286)">
                <path d="M511.432,413.386L613.719,354.331L716.005,413.386L716.005,531.496L613.719,590.551L511.432,531.496L511.432,413.386Z" style="fill:none;stroke:black;stroke-width:2.98px;"/>
            </g>
            <g transform="matrix(6.12323e-17,1,-1,6.12323e-17,1299.21,-1.19371e-12)">
                <path d="M511.432,413.386L613.719,354.331L716.005,413.386L716.005,531.496L613.719,590.551L511.432,531.496L511.432,413.386Z" style="fill:none;stroke:black;stroke-width:2.98px;"/>
            </g>
            <g transform="matrix(6.12323e-17,1,-1,6.12323e-17,944.882,-204.573)">
                <path d="M511.432,413.386L613.719,354.331L716.005,413.386L716.005,531.496L613.719,590.551L511.432,531.496L511.432,413.386Z" style="fill:none;stroke:black;stroke-width:2.98px;"/>
            </g>
            <g transform="matrix(1,0,0,1,-56.1282,36.9146)">
                <text x="649.606px" y="511.432px" style="font-family:'CenturyGothic-Bold', 'Century Gothic', sans-serif;font-weight:700;font-size:100.267px;">25</text>
            </g>
        </g>
        <g id="_24" serif:id="24" transform="matrix(1,0,0,1,708.661,1840.48)">
            <g transform="matrix(6.12323e-17,1,-1,6.12323e-17,1122.05,-306.859)">
                <path d="M511.432,413.386L613.719,354.331L716.005,413.386L716.005,531.496L613.719,590.551L511.432,531.496L511.432,413.386Z" style="fill:none;stroke:black;stroke-width:2.98px;"/>
            </g>
            <g transform="matrix(6.12323e-17,1,-1,6.12323e-17,1299.21,-204.573)">
                <path d="M511.432,413.386L613.719,354.331L716.005,413.386L716.005,531.496L613.719,590.551L511.432,531.496L511.432,413.386Z" style="fill:none;stroke:black;stroke-width:2.98px;"/>
            </g>
            <g transform="matrix(6.12323e-17,1,-1,6.12323e-17,1122.05,-102.286)">
                <path d="M511.432,413.386L613.719,354.331L716.005,413.386L716.005,531.496L613.719,590.551L511.432,531.496L511.432,413.386Z" style="fill:none;stroke:black;stroke-width:2.98px;"/>
            </g>
            <g transform="matrix(6.12323e-17,1,-1,6.12323e-17,944.882,-7.95808e-13)">
                <path d="M511.432,413.386L613.719,354.331L716.005,413.386L716.005,531.496L613.719,590.551L511.432,531.496L511.432,413.386Z" style="fill:none;stroke:black;stroke-width:2.98px;"/>
            </g>
            <g transform="matrix(6.12323e-17,1,-1,6.12323e-17,1122.05,102.286)">
                <path d="M511.432,413.386L613.719,354.331L716.005,413.386L716.005,531.496L613.719,590.551L511.432,531.496L511.432,413.386Z" style="fill:none;stroke:black;stroke-width:2.98px;"/>
            </g>
            <g transform="matrix(6.12323e-17,1,-1,6.12323e-17,1299.21,-1.19371e-12)">
                <path d="M511.432,413.386L613.719,354.331L716.005,413.386L716.005,531.496L613.719,590.551L511.432,531.496L511.432,413.386Z" style="fill:none;stroke:black;stroke-width:2.98px;"/>
            </g>
            <g transform="matrix(6.12323e-17,1,-1,6.12323e-17,944.882,-204.573)">
                <path d="M511.432,413.386L613.719,354.331L716.005,413.386L716.005,531.496L613.719,590.551L511.432,531.496L511.432,413.386Z" style="fill:none;stroke:black;stroke-width:2.98px;"/>
            </g>
            <g transform="matrix(1,0,0,1,-57.2756,36.9146)">
                <text x="649.606px" y="511.432px" style="font-family:'CenturyGothic-Bold', 'Century Gothic', sans-serif;font-weight:700;font-size:100.267px;">24</text>
            </g>
        </g>
        <g id="_23" serif:id="23" transform="matrix(1,0,0,1,354.331,1840.48)">
            <g transform="matrix(6.12323e-17,1,-1,6.12323e-17,1122.05,-306.859)">
                <path d="M511.432,413.386L613.719,354.331L716.005,413.386L716.005,531.496L613.719,590.551L511.432,531.496L511.432,413.386Z" style="fill:none;stroke:black;stroke-width:2.98px;"/>
            </g>
            <g transform="matrix(6.12323e-17,1,-1,6.12323e-17,1299.21,-204.573)">
                <path d="M511.432,413.386L613.719,354.331L716.005,413.386L716.005,531.496L613.719,590.551L511.432,531.496L511.432,413.386Z" style="fill:none;stroke:black;stroke-width:2.98px;"/>
            </g>
            <g transform="matrix(6.12323e-17,1,-1,6.12323e-17,1122.05,-102.286)">
                <path d="M511.432,413.386L613.719,354.331L716.005,413.386L716.005,531.496L613.719,590.551L511.432,531.496L511.432,413.386Z" style="fill:none;stroke:black;stroke-width:2.98px;"/>
            </g>
            <g transform="matrix(6.12323e-17,1,-1,6.12323e-17,944.882,-7.95808e-13)">
                <path d="M511.432,413.386L613.719,354.331L716.005,413.386L716.005,531.496L613.719,590.551L511.432,531.496L511.432,413.386Z" style="fill:none;stroke:black;stroke-width:2.98px;"/>
            </g>
            <g transform="matrix(6.12323e-17,1,-1,6.12323e-17,1122.05,102.286)">
                <path d="M511.432,413.386L613.719,354.331L716.005,413.386L716.005,531.496L613.719,590.551L511.432,531.496L511.432,413.386Z" style="fill:none;stroke:black;stroke-width:2.98px;"/>
            </g>
            <g transform="matrix(6.12323e-17,1,-1,6.12323e-17,1299.21,-1.19371e-12)">
                <path d="M511.432,413.386L613.719,354.331L716.005,413.386L716.005,531.496L613.719,590.551L511.432,531.496L511.432,413.386Z" style="fill:none;stroke:black;stroke-width:2.98px;"/>
            </g>
            <g transform="matrix(6.12323e-17,1,-1,6.12323e-17,944.882,-204.573)">
                <path d="M511.432,413.386L613.719,354.331L716.005,413.386L716.005,531.496L613.719,590.551L511.432,531.496L511.432,413.386Z" style="fill:none;stroke:black;stroke-width:2.98px;"/>
            </g>
            <g transform="matrix(1,0,0,1,-49.5953,36.0089)">
                <text x="649.606px" y="511.432px" style="font-family:'CenturyGothic-Bold', 'Century Gothic', sans-serif;font-weight:700;font-size:100.267px;">23</text>
            </g>
        </g>
        <g id="_22" serif:id="22" transform="matrix(1,0,0,1,0,1840.48)">
            <g transform="matrix(6.12323e-17,1,-1,6.12323e-17,1122.05,-306.859)">
                <path d="M511.432,413.386L613.719,354.331L716.005,413.386L716.005,531.496L613.719,590.551L511.432,531.496L511.432,413.386Z" style="fill:none;stroke:black;stroke-width:2.98px;"/>
            </g>
            <g transform="matrix(6.12323e-17,1,-1,6.12323e-17,1299.21,-204.573)">
                <path d="M511.432,413.386L613.719,354.331L716.005,413.386L716.005,531.496L613.719,590.551L511.432,531.496L511.432,413.386Z" style="fill:none;stroke:black;stroke-width:2.98px;"/>
            </g>
            <g transform="matrix(6.12323e-17,1,-1,6.12323e-17,1122.05,-102.286)">
                <path d="M511.432,413.386L613.719,354.331L716.005,413.386L716.005,531.496L613.719,590.551L511.432,531.496L511.432,413.386Z" style="fill:none;stroke:black;stroke-width:2.98px;"/>
            </g>
            <g transform="matrix(6.12323e-17,1,-1,6.12323e-17,944.882,-7.95808e-13)">
                <path d="M511.432,413.386L613.719,354.331L716.005,413.386L716.005,531.496L613.719,590.551L511.432,531.496L511.432,413.386Z" style="fill:none;stroke:black;stroke-width:2.98px;"/>
            </g>
            <g transform="matrix(6.12323e-17,1,-1,6.12323e-17,1122.05,102.286)">
                <path d="M511.432,413.386L613.719,354.331L716.005,413.386L716.005,531.496L613.719,590.551L511.432,531.496L511.432,413.386Z" style="fill:none;stroke:black;stroke-width:2.98px;"/>
            </g>
            <g transform="matrix(6.12323e-17,1,-1,6.12323e-17,1299.21,-1.19371e-12)">
                <path d="M511.432,413.386L613.719,354.331L716.005,413.386L716.005,531.496L613.719,590.551L511.432,531.496L511.432,413.386Z" style="fill:none;stroke:black;stroke-width:2.98px;"/>
            </g>
            <g transform="matrix(6.12323e-17,1,-1,6.12323e-17,944.882,-204.573)">
                <path d="M511.432,413.386L613.719,354.331L716.005,413.386L716.005,531.496L613.719,590.551L511.432,531.496L511.432,413.386Z" style="fill:none;stroke:black;stroke-width:2.98px;"/>
            </g>
            <g transform="matrix(1,0,0,1,-61.1433,37.5936)">
                <text x="649.606px" y="511.432px" style="font-family:'CenturyGothic-Bold', 'Century Gothic', sans-serif;font-weight:700;font-size:100.267px;">22</text>
            </g>
        </g>
    </g>
    <g id="G-6" serif:id="G 6" transform="matrix(1.39914,0,0,1.4001,-413.525,-250.977)">
        <g id="_21" serif:id="21" transform="matrix(1,0,0,1,885.827,1534.3)">
            <g transform="matrix(6.12323e-17,1,-1,6.12323e-17,1122.05,-306.859)">
                <path d="M511.432,413.386L613.719,354.331L716.005,413.386L716.005,531.496L613.719,590.551L511.432,531.496L511.432,413.386Z" style="fill:none;stroke:black;stroke-width:2.98px;"/>
            </g>
            <g transform="matrix(6.12323e-17,1,-1,6.12323e-17,1299.21,-204.573)">
                <path d="M511.432,413.386L613.719,354.331L716.005,413.386L716.005,531.496L613.719,590.551L511.432,531.496L511.432,413.386Z" style="fill:none;stroke:black;stroke-width:2.98px;"/>
            </g>
            <g transform="matrix(6.12323e-17,1,-1,6.12323e-17,1122.05,-102.286)">
                <path d="M511.432,413.386L613.719,354.331L716.005,413.386L716.005,531.496L613.719,590.551L511.432,531.496L511.432,413.386Z" style="fill:none;stroke:black;stroke-width:2.98px;"/>
            </g>
            <g transform="matrix(6.12323e-17,1,-1,6.12323e-17,944.882,-7.95808e-13)">
                <path d="M511.432,413.386L613.719,354.331L716.005,413.386L716.005,531.496L613.719,590.551L511.432,531.496L511.432,413.386Z" style="fill:none;stroke:black;stroke-width:2.98px;"/>
            </g>
            <g transform="matrix(6.12323e-17,1,-1,6.12323e-17,1122.05,102.286)">
                <path d="M511.432,413.386L613.719,354.331L716.005,413.386L716.005,531.496L613.719,590.551L511.432,531.496L511.432,413.386Z" style="fill:none;stroke:black;stroke-width:2.98px;"/>
            </g>
            <g transform="matrix(6.12323e-17,1,-1,6.12323e-17,1299.21,-1.19371e-12)">
                <path d="M511.432,413.386L613.719,354.331L716.005,413.386L716.005,531.496L613.719,590.551L511.432,531.496L511.432,413.386Z" style="fill:none;stroke:black;stroke-width:2.98px;"/>
            </g>
            <g transform="matrix(6.12323e-17,1,-1,6.12323e-17,944.882,-204.573)">
                <path d="M511.432,413.386L613.719,354.331L716.005,413.386L716.005,531.496L613.719,590.551L511.432,531.496L511.432,413.386Z" style="fill:none;stroke:black;stroke-width:2.98px;"/>
            </g>
            <g transform="matrix(1,0,0,1,-51.0246,36.0089)">
                <text x="649.606px" y="511.432px" style="font-family:'CenturyGothic-Bold', 'Century Gothic', sans-serif;font-weight:700;font-size:100.267px;">21</text>
            </g>
        </g>
        <g id="_20" serif:id="20" transform="matrix(1,0,0,1,531.496,1534.3)">
            <g transform="matrix(6.12323e-17,1,-1,6.12323e-17,1122.05,-306.859)">
                <path d="M511.432,413.386L613.719,354.331L716.005,413.386L716.005,531.496L613.719,590.551L511.432,531.496L511.432,413.386Z" style="fill:none;stroke:black;stroke-width:2.98px;"/>
            </g>
            <g transform="matrix(6.12323e-17,1,-1,6.12323e-17,1299.21,-204.573)">
                <path d="M511.432,413.386L613.719,354.331L716.005,413.386L716.005,531.496L613.719,590.551L511.432,531.496L511.432,413.386Z" style="fill:none;stroke:black;stroke-width:2.98px;"/>
            </g>
            <g transform="matrix(6.12323e-17,1,-1,6.12323e-17,1122.05,-102.286)">
                <path d="M511.432,413.386L613.719,354.331L716.005,413.386L716.005,531.496L613.719,590.551L511.432,531.496L511.432,413.386Z" style="fill:none;stroke:black;stroke-width:2.98px;"/>
            </g>
            <g transform="matrix(6.12323e-17,1,-1,6.12323e-17,944.882,-7.95808e-13)">
                <path d="M511.432,413.386L613.719,354.331L716.005,413.386L716.005,531.496L613.719,590.551L511.432,531.496L511.432,413.386Z" style="fill:none;stroke:black;stroke-width:2.98px;"/>
            </g>
            <g transform="matrix(6.12323e-17,1,-1,6.12323e-17,1122.05,102.286)">
                <path d="M511.432,413.386L613.719,354.331L716.005,413.386L716.005,531.496L613.719,590.551L511.432,531.496L511.432,413.386Z" style="fill:none;stroke:black;stroke-width:2.98px;"/>
            </g>
            <g transform="matrix(6.12323e-17,1,-1,6.12323e-17,1299.21,-1.19371e-12)">
                <path d="M511.432,413.386L613.719,354.331L716.005,413.386L716.005,531.496L613.719,590.551L511.432,531.496L511.432,413.386Z" style="fill:none;stroke:black;stroke-width:2.98px;"/>
            </g>
            <g transform="matrix(6.12323e-17,1,-1,6.12323e-17,944.882,-204.573)">
                <path d="M511.432,413.386L613.719,354.331L716.005,413.386L716.005,531.496L613.719,590.551L511.432,531.496L511.432,413.386Z" style="fill:none;stroke:black;stroke-width:2.98px;"/>
            </g>
            <g transform="matrix(1,0,0,1,-49.8483,36.0089)">
                <text x="649.606px" y="511.432px" style="font-family:'CenturyGothic-Bold', 'Century Gothic', sans-serif;font-weight:700;font-size:100.267px;">20</text>
            </g>
        </g>
        <g id="_19" serif:id="19" transform="matrix(1,0,0,1,177.165,1534.3)">
            <g transform="matrix(6.12323e-17,1,-1,6.12323e-17,1122.05,-306.859)">
                <path d="M511.432,413.386L613.719,354.331L716.005,413.386L716.005,531.496L613.719,590.551L511.432,531.496L511.432,413.386Z" style="fill:none;stroke:black;stroke-width:2.98px;"/>
            </g>
            <g transform="matrix(6.12323e-17,1,-1,6.12323e-17,1299.21,-204.573)">
                <path d="M511.432,413.386L613.719,354.331L716.005,413.386L716.005,531.496L613.719,590.551L511.432,531.496L511.432,413.386Z" style="fill:none;stroke:black;stroke-width:2.98px;"/>
            </g>
            <g transform="matrix(6.12323e-17,1,-1,6.12323e-17,1122.05,-102.286)">
                <path d="M511.432,413.386L613.719,354.331L716.005,413.386L716.005,531.496L613.719,590.551L511.432,531.496L511.432,413.386Z" style="fill:none;stroke:black;stroke-width:2.98px;"/>
            </g>
            <g transform="matrix(6.12323e-17,1,-1,6.12323e-17,944.882,-7.95808e-13)">
                <path d="M511.432,413.386L613.719,354.331L716.005,413.386L716.005,531.496L613.719,590.551L511.432,531.496L511.432,413.386Z" style="fill:none;stroke:black;stroke-width:2.98px;"/>
            </g>
            <g transform="matrix(6.12323e-17,1,-1,6.12323e-17,1122.05,102.286)">
                <path d="M511.432,413.386L613.719,354.331L716.005,413.386L716.005,531.496L613.719,590.551L511.432,531.496L511.432,413.386Z" style="fill:none;stroke:black;stroke-width:2.98px;"/>
            </g>
            <g transform="matrix(6.12323e-17,1,-1,6.12323e-17,1299.21,-1.19371e-12)">
                <path d="M511.432,413.386L613.719,354.331L716.005,413.386L716.005,531.496L613.719,590.551L511.432,531.496L511.432,413.386Z" style="fill:none;stroke:black;stroke-width:2.98px;"/>
            </g>
            <g transform="matrix(6.12323e-17,1,-1,6.12323e-17,944.882,-204.573)">
                <path d="M511.432,413.386L613.719,354.331L716.005,413.386L716.005,531.496L613.719,590.551L511.432,531.496L511.432,413.386Z" style="fill:none;stroke:black;stroke-width:2.98px;"/>
            </g>
            <g transform="matrix(1,0,0,1,-48.7294,36.0089)">
                <text x="649.606px" y="511.432px" style="font-family:'CenturyGothic-Bold', 'Century Gothic', sans-serif;font-weight:700;font-size:100.267px;">19</text>
            </g>
        </g>
    </g>
    <g id="G-5" serif:id="G 5" transform="matrix(1.39914,0,0,1.4001,-413.525,-250.977)">
        <g id="_18" serif:id="18" transform="matrix(1,0,0,1,1062.99,1227.44)">
            <g transform="matrix(6.12323e-17,1,-1,6.12323e-17,1122.05,-306.859)">
                <path d="M511.432,413.386L613.719,354.331L716.005,413.386L716.005,531.496L613.719,590.551L511.432,531.496L511.432,413.386Z" style="fill:none;stroke:black;stroke-width:2.98px;"/>
            </g>
            <g transform="matrix(6.12323e-17,1,-1,6.12323e-17,1299.21,-204.573)">
                <path d="M511.432,413.386L613.719,354.331L716.005,413.386L716.005,531.496L613.719,590.551L511.432,531.496L511.432,413.386Z" style="fill:none;stroke:black;stroke-width:2.98px;"/>
            </g>
            <g transform="matrix(6.12323e-17,1,-1,6.12323e-17,1122.05,-102.286)">
                <path d="M511.432,413.386L613.719,354.331L716.005,413.386L716.005,531.496L613.719,590.551L511.432,531.496L511.432,413.386Z" style="fill:none;stroke:black;stroke-width:2.98px;"/>
            </g>
            <g transform="matrix(6.12323e-17,1,-1,6.12323e-17,944.882,-7.95808e-13)">
                <path d="M511.432,413.386L613.719,354.331L716.005,413.386L716.005,531.496L613.719,590.551L511.432,531.496L511.432,413.386Z" style="fill:none;stroke:black;stroke-width:2.98px;"/>
            </g>
            <g transform="matrix(6.12323e-17,1,-1,6.12323e-17,1122.05,102.286)">
                <path d="M511.432,413.386L613.719,354.331L716.005,413.386L716.005,531.496L613.719,590.551L511.432,531.496L511.432,413.386Z" style="fill:none;stroke:black;stroke-width:2.98px;"/>
            </g>
            <g transform="matrix(6.12323e-17,1,-1,6.12323e-17,1299.21,-1.19371e-12)">
                <path d="M511.432,413.386L613.719,354.331L716.005,413.386L716.005,531.496L613.719,590.551L511.432,531.496L511.432,413.386Z" style="fill:none;stroke:black;stroke-width:2.98px;"/>
            </g>
            <g transform="matrix(6.12323e-17,1,-1,6.12323e-17,944.882,-204.573)">
                <path d="M511.432,413.386L613.719,354.331L716.005,413.386L716.005,531.496L613.719,590.551L511.432,531.496L511.432,413.386Z" style="fill:none;stroke:black;stroke-width:2.98px;"/>
            </g>
            <g transform="matrix(1,0,0,1,-61.8743,35.1031)">
                <text x="649.606px" y="511.432px" style="font-family:'CenturyGothic-Bold', 'Century Gothic', sans-serif;font-weight:700;font-size:100.267px;">18</text>
            </g>
        </g>
        <g id="_17" serif:id="17" transform="matrix(1,0,0,1,708.661,1227.44)">
            <g transform="matrix(6.12323e-17,1,-1,6.12323e-17,1122.05,-306.859)">
                <path d="M511.432,413.386L613.719,354.331L716.005,413.386L716.005,531.496L613.719,590.551L511.432,531.496L511.432,413.386Z" style="fill:none;stroke:black;stroke-width:2.98px;"/>
            </g>
            <g transform="matrix(6.12323e-17,1,-1,6.12323e-17,1299.21,-204.573)">
                <path d="M511.432,413.386L613.719,354.331L716.005,413.386L716.005,531.496L613.719,590.551L511.432,531.496L511.432,413.386Z" style="fill:none;stroke:black;stroke-width:2.98px;"/>
            </g>
            <g transform="matrix(6.12323e-17,1,-1,6.12323e-17,1122.05,-102.286)">
                <path d="M511.432,413.386L613.719,354.331L716.005,413.386L716.005,531.496L613.719,590.551L511.432,531.496L511.432,413.386Z" style="fill:none;stroke:black;stroke-width:2.98px;"/>
            </g>
            <g transform="matrix(6.12323e-17,1,-1,6.12323e-17,944.882,-7.95808e-13)">
                <path d="M511.432,413.386L613.719,354.331L716.005,413.386L716.005,531.496L613.719,590.551L511.432,531.496L511.432,413.386Z" style="fill:none;stroke:black;stroke-width:2.98px;"/>
            </g>
            <g transform="matrix(6.12323e-17,1,-1,6.12323e-17,1122.05,102.286)">
                <path d="M511.432,413.386L613.719,354.331L716.005,413.386L716.005,531.496L613.719,590.551L511.432,531.496L511.432,413.386Z" style="fill:none;stroke:black;stroke-width:2.98px;"/>
            </g>
            <g transform="matrix(6.12323e-17,1,-1,6.12323e-17,1299.21,-1.19371e-12)">
                <path d="M511.432,413.386L613.719,354.331L716.005,413.386L716.005,531.496L613.719,590.551L511.432,531.496L511.432,413.386Z" style="fill:none;stroke:black;stroke-width:2.98px;"/>
            </g>
            <g transform="matrix(6.12323e-17,1,-1,6.12323e-17,944.882,-204.573)">
                <path d="M511.432,413.386L613.719,354.331L716.005,413.386L716.005,531.496L613.719,590.551L511.432,531.496L511.432,413.386Z" style="fill:none;stroke:black;stroke-width:2.98px;"/>
            </g>
            <g transform="matrix(1,0,0,1,-67.5224,35.1031)">
                <text x="649.606px" y="511.432px" style="font-family:'CenturyGothic-Bold', 'Century Gothic', sans-serif;font-weight:700;font-size:100.267px;">17</text>
            </g>
        </g>
        <g id="_16" serif:id="16" transform="matrix(1,0,0,1,354.331,1227.44)">
            <g transform="matrix(6.12323e-17,1,-1,6.12323e-17,1122.05,-306.859)">
                <path d="M511.432,413.386L613.719,354.331L716.005,413.386L716.005,531.496L613.719,590.551L511.432,531.496L511.432,413.386Z" style="fill:none;stroke:black;stroke-width:2.98px;"/>
            </g>
            <g transform="matrix(6.12323e-17,1,-1,6.12323e-17,1299.21,-204.573)">
                <path d="M511.432,413.386L613.719,354.331L716.005,413.386L716.005,531.496L613.719,590.551L511.432,531.496L511.432,413.386Z" style="fill:none;stroke:black;stroke-width:2.98px;"/>
            </g>
            <g transform="matrix(6.12323e-17,1,-1,6.12323e-17,1122.05,-102.286)">
                <path d="M511.432,413.386L613.719,354.331L716.005,413.386L716.005,531.496L613.719,590.551L511.432,531.496L511.432,413.386Z" style="fill:none;stroke:black;stroke-width:2.98px;"/>
            </g>
            <g transform="matrix(6.12323e-17,1,-1,6.12323e-17,944.882,-7.95808e-13)">
                <path d="M511.432,413.386L613.719,354.331L716.005,413.386L716.005,531.496L613.719,590.551L511.432,531.496L511.432,413.386Z" style="fill:none;stroke:black;stroke-width:2.98px;"/>
            </g>
            <g transform="matrix(6.12323e-17,1,-1,6.12323e-17,1122.05,102.286)">
                <path d="M511.432,413.386L613.719,354.331L716.005,413.386L716.005,531.496L613.719,590.551L511.432,531.496L511.432,413.386Z" style="fill:none;stroke:black;stroke-width:2.98px;"/>
            </g>
            <g transform="matrix(6.12323e-17,1,-1,6.12323e-17,1299.21,-1.19371e-12)">
                <path d="M511.432,413.386L613.719,354.331L716.005,413.386L716.005,531.496L613.719,590.551L511.432,531.496L511.432,413.386Z" style="fill:none;stroke:black;stroke-width:2.98px;"/>
            </g>
            <g transform="matrix(6.12323e-17,1,-1,6.12323e-17,944.882,-204.573)">
                <path d="M511.432,413.386L613.719,354.331L716.005,413.386L716.005,531.496L613.719,590.551L511.432,531.496L511.432,413.386Z" style="fill:none;stroke:black;stroke-width:2.98px;"/>
            </g>
            <g transform="matrix(1,0,0,1,-57.9187,35.1031)">
                <text x="649.606px" y="511.432px" style="font-family:'CenturyGothic-Bold', 'Century Gothic', sans-serif;font-weight:700;font-size:100.267px;">16</text>
            </g>
        </g>
        <g id="_15" serif:id="15" transform="matrix(1,0,0,1,2.081e-12,1227.44)">
            <g transform="matrix(6.12323e-17,1,-1,6.12323e-17,1122.05,-306.859)">
                <path d="M511.432,413.386L613.719,354.331L716.005,413.386L716.005,531.496L613.719,590.551L511.432,531.496L511.432,413.386Z" style="fill:none;stroke:black;stroke-width:2.98px;"/>
            </g>
            <g transform="matrix(6.12323e-17,1,-1,6.12323e-17,1299.21,-204.573)">
                <path d="M511.432,413.386L613.719,354.331L716.005,413.386L716.005,531.496L613.719,590.551L511.432,531.496L511.432,413.386Z" style="fill:none;stroke:black;stroke-width:2.98px;"/>
            </g>
            <g transform="matrix(6.12323e-17,1,-1,6.12323e-17,1122.05,-102.286)">
                <path d="M511.432,413.386L613.719,354.331L716.005,413.386L716.005,531.496L613.719,590.551L511.432,531.496L511.432,413.386Z" style="fill:none;stroke:black;stroke-width:2.98px;"/>
            </g>
            <g transform="matrix(6.12323e-17,1,-1,6.12323e-17,944.882,-7.95808e-13)">
                <path d="M511.432,413.386L613.719,354.331L716.005,413.386L716.005,531.496L613.719,590.551L511.432,531.496L511.432,413.386Z" style="fill:none;stroke:black;stroke-width:2.98px;"/>
            </g>
            <g transform="matrix(6.12323e-17,1,-1,6.12323e-17,1122.05,102.286)">
                <path d="M511.432,413.386L613.719,354.331L716.005,413.386L716.005,531.496L613.719,590.551L511.432,531.496L511.432,413.386Z" style="fill:none;stroke:black;stroke-width:2.98px;"/>
            </g>
            <g transform="matrix(6.12323e-17,1,-1,6.12323e-17,1299.21,-1.19371e-12)">
                <path d="M511.432,413.386L613.719,354.331L716.005,413.386L716.005,531.496L613.719,590.551L511.432,531.496L511.432,413.386Z" style="fill:none;stroke:black;stroke-width:2.98px;"/>
            </g>
            <g transform="matrix(6.12323e-17,1,-1,6.12323e-17,944.882,-204.573)">
                <path d="M511.432,413.386L613.719,354.331L716.005,413.386L716.005,531.496L613.719,590.551L511.432,531.496L511.432,413.386Z" style="fill:none;stroke:black;stroke-width:2.98px;"/>
            </g>
            <g transform="matrix(1,0,0,1,-57.3523,35.1031)">
                <text x="649.606px" y="511.432px" style="font-family:'CenturyGothic-Bold', 'Century Gothic', sans-serif;font-weight:700;font-size:100.267px;">15</text>
            </g>
        </g>
    </g>
    <g id="G-4" serif:id="G 4" transform="matrix(1.39914,0,0,1.4001,-413.525,-250.977)">
        <g id="_12" serif:id="12" transform="matrix(1,0,0,1,177.165,920.578)">
            <g transform="matrix(6.12323e-17,1,-1,6.12323e-17,1122.05,-306.859)">
                <path d="M511.432,413.386L613.719,354.331L716.005,413.386L716.005,531.496L613.719,590.551L511.432,531.496L511.432,413.386Z" style="fill:none;stroke:black;stroke-width:2.98px;"/>
            </g>
            <g transform="matrix(6.12323e-17,1,-1,6.12323e-17,1299.21,-204.573)">
                <path d="M511.432,413.386L613.719,354.331L716.005,413.386L716.005,531.496L613.719,590.551L511.432,531.496L511.432,413.386Z" style="fill:none;stroke:black;stroke-width:2.98px;"/>
            </g>
            <g transform="matrix(6.12323e-17,1,-1,6.12323e-17,1122.05,-102.286)">
                <path d="M511.432,413.386L613.719,354.331L716.005,413.386L716.005,531.496L613.719,590.551L511.432,531.496L511.432,413.386Z" style="fill:none;stroke:black;stroke-width:2.98px;"/>
            </g>
            <g transform="matrix(6.12323e-17,1,-1,6.12323e-17,944.882,-7.95808e-13)">
                <path d="M511.432,413.386L613.719,354.331L716.005,413.386L716.005,531.496L613.719,590.551L511.432,531.496L511.432,413.386Z" style="fill:none;stroke:black;stroke-width:2.98px;"/>
            </g>
            <g transform="matrix(6.12323e-17,1,-1,6.12323e-17,1122.05,102.286)">
                <path d="M511.432,413.386L613.719,354.331L716.005,413.386L716.005,531.496L613.719,590.551L511.432,531.496L511.432,413.386Z" style="fill:none;stroke:black;stroke-width:2.98px;"/>
            </g>
            <g transform="matrix(6.12323e-17,1,-1,6.12323e-17,1299.21,-1.19371e-12)">
                <path d="M511.432,413.386L613.719,354.331L716.005,413.386L716.005,531.496L613.719,590.551L511.432,531.496L511.432,413.386Z" style="fill:none;stroke:black;stroke-width:2.98px;"/>
            </g>
            <g transform="matrix(6.12323e-17,1,-1,6.12323e-17,944.882,-204.573)">
                <path d="M511.432,413.386L613.719,354.331L716.005,413.386L716.005,531.496L613.719,590.551L511.432,531.496L511.432,413.386Z" style="fill:none;stroke:black;stroke-width:2.98px;"/>
            </g>
            <g transform="matrix(1,0,0,1,-63.4133,36.9146)">
                <text x="649.606px" y="511.432px" style="font-family:'CenturyGothic-Bold', 'Century Gothic', sans-serif;font-weight:700;font-size:100.267px;">12</text>
            </g>
        </g>
        <g id="_13" serif:id="13" transform="matrix(1,0,0,1,531.496,920.578)">
            <g transform="matrix(6.12323e-17,1,-1,6.12323e-17,1122.05,-306.859)">
                <path d="M511.432,413.386L613.719,354.331L716.005,413.386L716.005,531.496L613.719,590.551L511.432,531.496L511.432,413.386Z" style="fill:none;stroke:black;stroke-width:2.98px;"/>
            </g>
            <g transform="matrix(6.12323e-17,1,-1,6.12323e-17,1299.21,-204.573)">
                <path d="M511.432,413.386L613.719,354.331L716.005,413.386L716.005,531.496L613.719,590.551L511.432,531.496L511.432,413.386Z" style="fill:none;stroke:black;stroke-width:2.98px;"/>
            </g>
            <g transform="matrix(6.12323e-17,1,-1,6.12323e-17,1122.05,-102.286)">
                <path d="M511.432,413.386L613.719,354.331L716.005,413.386L716.005,531.496L613.719,590.551L511.432,531.496L511.432,413.386Z" style="fill:none;stroke:black;stroke-width:2.98px;"/>
            </g>
            <g transform="matrix(6.12323e-17,1,-1,6.12323e-17,944.882,-7.95808e-13)">
                <path d="M511.432,413.386L613.719,354.331L716.005,413.386L716.005,531.496L613.719,590.551L511.432,531.496L511.432,413.386Z" style="fill:none;stroke:black;stroke-width:2.98px;"/>
            </g>
            <g transform="matrix(6.12323e-17,1,-1,6.12323e-17,1122.05,102.286)">
                <path d="M511.432,413.386L613.719,354.331L716.005,413.386L716.005,531.496L613.719,590.551L511.432,531.496L511.432,413.386Z" style="fill:none;stroke:black;stroke-width:2.98px;"/>
            </g>
            <g transform="matrix(6.12323e-17,1,-1,6.12323e-17,1299.21,-1.19371e-12)">
                <path d="M511.432,413.386L613.719,354.331L716.005,413.386L716.005,531.496L613.719,590.551L511.432,531.496L511.432,413.386Z" style="fill:none;stroke:black;stroke-width:2.98px;"/>
            </g>
            <g transform="matrix(6.12323e-17,1,-1,6.12323e-17,944.882,-204.573)">
                <path d="M511.432,413.386L613.719,354.331L716.005,413.386L716.005,531.496L613.719,590.551L511.432,531.496L511.432,413.386Z" style="fill:none;stroke:black;stroke-width:2.98px;"/>
            </g>
            <g transform="matrix(1,0,0,1,-58.3433,36.0089)">
                <text x="649.606px" y="511.432px" style="font-family:'CenturyGothic-Bold', 'Century Gothic', sans-serif;font-weight:700;font-size:100.267px;">13</text>
            </g>
        </g>
        <g id="_14" serif:id="14" transform="matrix(1,0,0,1,885.827,920.578)">
            <g transform="matrix(6.12323e-17,1,-1,6.12323e-17,1122.05,-306.859)">
                <path d="M511.432,413.386L613.719,354.331L716.005,413.386L716.005,531.496L613.719,590.551L511.432,531.496L511.432,413.386Z" style="fill:none;stroke:black;stroke-width:2.98px;"/>
            </g>
            <g transform="matrix(6.12323e-17,1,-1,6.12323e-17,1299.21,-204.573)">
                <path d="M511.432,413.386L613.719,354.331L716.005,413.386L716.005,531.496L613.719,590.551L511.432,531.496L511.432,413.386Z" style="fill:none;stroke:black;stroke-width:2.98px;"/>
            </g>
            <g transform="matrix(6.12323e-17,1,-1,6.12323e-17,1122.05,-102.286)">
                <path d="M511.432,413.386L613.719,354.331L716.005,413.386L716.005,531.496L613.719,590.551L511.432,531.496L511.432,413.386Z" style="fill:none;stroke:black;stroke-width:2.98px;"/>
            </g>
            <g transform="matrix(6.12323e-17,1,-1,6.12323e-17,944.882,-7.95808e-13)">
                <path d="M511.432,413.386L613.719,354.331L716.005,413.386L716.005,531.496L613.719,590.551L511.432,531.496L511.432,413.386Z" style="fill:none;stroke:black;stroke-width:2.98px;"/>
            </g>
            <g transform="matrix(6.12323e-17,1,-1,6.12323e-17,1122.05,102.286)">
                <path d="M511.432,413.386L613.719,354.331L716.005,413.386L716.005,531.496L613.719,590.551L511.432,531.496L511.432,413.386Z" style="fill:none;stroke:black;stroke-width:2.98px;"/>
            </g>
            <g transform="matrix(6.12323e-17,1,-1,6.12323e-17,1299.21,-1.19371e-12)">
                <path d="M511.432,413.386L613.719,354.331L716.005,413.386L716.005,531.496L613.719,590.551L511.432,531.496L511.432,413.386Z" style="fill:none;stroke:black;stroke-width:2.98px;"/>
            </g>
            <g transform="matrix(6.12323e-17,1,-1,6.12323e-17,944.882,-204.573)">
                <path d="M511.432,413.386L613.719,354.331L716.005,413.386L716.005,531.496L613.719,590.551L511.432,531.496L511.432,413.386Z" style="fill:none;stroke:black;stroke-width:2.98px;"/>
            </g>
            <g transform="matrix(1,0,0,1,-59.0227,36.0089)">
                <text x="649.606px" y="511.432px" style="font-family:'CenturyGothic-Bold', 'Century Gothic', sans-serif;font-weight:700;font-size:100.267px;">14</text>
            </g>
        </g>
    </g>
    <g id="G-3" serif:id="G 3" transform="matrix(1.39914,0,0,1.4001,-413.525,-250.977)">
        <g id="_11" serif:id="11" transform="matrix(1,0,0,1,1062.99,613.719)">
            <g transform="matrix(6.12323e-17,1,-1,6.12323e-17,1122.05,-306.859)">
                <path d="M511.432,413.386L613.719,354.331L716.005,413.386L716.005,531.496L613.719,590.551L511.432,531.496L511.432,413.386Z" style="fill:none;stroke:black;stroke-width:2.98px;"/>
            </g>
            <g transform="matrix(6.12323e-17,1,-1,6.12323e-17,1299.21,-204.573)">
                <path d="M511.432,413.386L613.719,354.331L716.005,413.386L716.005,531.496L613.719,590.551L511.432,531.496L511.432,413.386Z" style="fill:none;stroke:black;stroke-width:2.98px;"/>
            </g>
            <g transform="matrix(6.12323e-17,1,-1,6.12323e-17,1122.05,-102.286)">
                <path d="M511.432,413.386L613.719,354.331L716.005,413.386L716.005,531.496L613.719,590.551L511.432,531.496L511.432,413.386Z" style="fill:none;stroke:black;stroke-width:2.98px;"/>
            </g>
            <g transform="matrix(6.12323e-17,1,-1,6.12323e-17,944.882,-7.95808e-13)">
                <path d="M511.432,413.386L613.719,354.331L716.005,413.386L716.005,531.496L613.719,590.551L511.432,531.496L511.432,413.386Z" style="fill:none;stroke:black;stroke-width:2.98px;"/>
            </g>
            <g transform="matrix(6.12323e-17,1,-1,6.12323e-17,1122.05,102.286)">
                <path d="M511.432,413.386L613.719,354.331L716.005,413.386L716.005,531.496L613.719,590.551L511.432,531.496L511.432,413.386Z" style="fill:none;stroke:black;stroke-width:2.98px;"/>
            </g>
            <g transform="matrix(6.12323e-17,1,-1,6.12323e-17,1299.21,-1.19371e-12)">
                <path d="M511.432,413.386L613.719,354.331L716.005,413.386L716.005,531.496L613.719,590.551L511.432,531.496L511.432,413.386Z" style="fill:none;stroke:black;stroke-width:2.98px;"/>
            </g>
            <g transform="matrix(6.12323e-17,1,-1,6.12323e-17,944.882,-204.573)">
                <path d="M511.432,413.386L613.719,354.331L716.005,413.386L716.005,531.496L613.719,590.551L511.432,531.496L511.432,413.386Z" style="fill:none;stroke:black;stroke-width:2.98px;"/>
            </g>
            <g transform="matrix(1,0,0,1,-53.2946,36.0089)">
                <text x="649.606px" y="511.432px" style="font-family:'CenturyGothic-Bold', 'Century Gothic', sans-serif;font-weight:700;font-size:100.267px;">11</text>
            </g>
        </g>
        <g id="_10" serif:id="10" transform="matrix(1,0,0,1,708.661,613.719)">
            <g transform="matrix(6.12323e-17,1,-1,6.12323e-17,1122.05,-306.859)">
                <path d="M511.432,413.386L613.719,354.331L716.005,413.386L716.005,531.496L613.719,590.551L511.432,531.496L511.432,413.386Z" style="fill:none;stroke:black;stroke-width:2.98px;"/>
            </g>
            <g transform="matrix(6.12323e-17,1,-1,6.12323e-17,1299.21,-204.573)">
                <path d="M511.432,413.386L613.719,354.331L716.005,413.386L716.005,531.496L613.719,590.551L511.432,531.496L511.432,413.386Z" style="fill:none;stroke:black;stroke-width:2.98px;"/>
            </g>
            <g transform="matrix(6.12323e-17,1,-1,6.12323e-17,1122.05,-102.286)">
                <path d="M511.432,413.386L613.719,354.331L716.005,413.386L716.005,531.496L613.719,590.551L511.432,531.496L511.432,413.386Z" style="fill:none;stroke:black;stroke-width:2.98px;"/>
            </g>
            <g transform="matrix(6.12323e-17,1,-1,6.12323e-17,944.882,-7.95808e-13)">
                <path d="M511.432,413.386L613.719,354.331L716.005,413.386L716.005,531.496L613.719,590.551L511.432,531.496L511.432,413.386Z" style="fill:none;stroke:black;stroke-width:2.98px;"/>
            </g>
            <g transform="matrix(6.12323e-17,1,-1,6.12323e-17,1122.05,102.286)">
                <path d="M511.432,413.386L613.719,354.331L716.005,413.386L716.005,531.496L613.719,590.551L511.432,531.496L511.432,413.386Z" style="fill:none;stroke:black;stroke-width:2.98px;"/>
            </g>
            <g transform="matrix(6.12323e-17,1,-1,6.12323e-17,1299.21,-1.19371e-12)">
                <path d="M511.432,413.386L613.719,354.331L716.005,413.386L716.005,531.496L613.719,590.551L511.432,531.496L511.432,413.386Z" style="fill:none;stroke:black;stroke-width:2.98px;"/>
            </g>
            <g transform="matrix(6.12323e-17,1,-1,6.12323e-17,944.882,-204.573)">
                <path d="M511.432,413.386L613.719,354.331L716.005,413.386L716.005,531.496L613.719,590.551L511.432,531.496L511.432,413.386Z" style="fill:none;stroke:black;stroke-width:2.98px;"/>
            </g>
            <g transform="matrix(1,0,0,1,-57.5283,36.0089)">
                <text x="649.606px" y="511.432px" style="font-family:'CenturyGothic-Bold', 'Century Gothic', sans-serif;font-weight:700;font-size:100.267px;">10</text>
            </g>
        </g>
        <g id="_9" serif:id="9" transform="matrix(1,0,0,1,354.331,613.719)">
            <g transform="matrix(6.12323e-17,1,-1,6.12323e-17,1122.05,-306.859)">
                <path d="M511.432,413.386L613.719,354.331L716.005,413.386L716.005,531.496L613.719,590.551L511.432,531.496L511.432,413.386Z" style="fill:none;stroke:black;stroke-width:2.98px;"/>
            </g>
            <g transform="matrix(6.12323e-17,1,-1,6.12323e-17,1299.21,-204.573)">
                <path d="M511.432,413.386L613.719,354.331L716.005,413.386L716.005,531.496L613.719,590.551L511.432,531.496L511.432,413.386Z" style="fill:none;stroke:black;stroke-width:2.98px;"/>
            </g>
            <g transform="matrix(6.12323e-17,1,-1,6.12323e-17,1122.05,-102.286)">
                <path d="M511.432,413.386L613.719,354.331L716.005,413.386L716.005,531.496L613.719,590.551L511.432,531.496L511.432,413.386Z" style="fill:none;stroke:black;stroke-width:2.98px;"/>
            </g>
            <g transform="matrix(6.12323e-17,1,-1,6.12323e-17,944.882,-7.95808e-13)">
                <path d="M511.432,413.386L613.719,354.331L716.005,413.386L716.005,531.496L613.719,590.551L511.432,531.496L511.432,413.386Z" style="fill:none;stroke:black;stroke-width:2.98px;"/>
            </g>
            <g transform="matrix(6.12323e-17,1,-1,6.12323e-17,1122.05,102.286)">
                <path d="M511.432,413.386L613.719,354.331L716.005,413.386L716.005,531.496L613.719,590.551L511.432,531.496L511.432,413.386Z" style="fill:none;stroke:black;stroke-width:2.98px;"/>
            </g>
            <g transform="matrix(6.12323e-17,1,-1,6.12323e-17,1299.21,-1.19371e-12)">
                <path d="M511.432,413.386L613.719,354.331L716.005,413.386L716.005,531.496L613.719,590.551L511.432,531.496L511.432,413.386Z" style="fill:none;stroke:black;stroke-width:2.98px;"/>
            </g>
            <g transform="matrix(6.12323e-17,1,-1,6.12323e-17,944.882,-204.573)">
                <path d="M511.432,413.386L613.719,354.331L716.005,413.386L716.005,531.496L613.719,590.551L511.432,531.496L511.432,413.386Z" style="fill:none;stroke:black;stroke-width:2.98px;"/>
            </g>
            <g transform="matrix(1,0,0,1,-29.3374,36.0334)">
                <text x="649.606px" y="511.432px" style="font-family:'CenturyGothic-Bold', 'Century Gothic', sans-serif;font-weight:700;font-size:100.267px;">9</text>
            </g>
        </g>
        <g id="_8" serif:id="8" transform="matrix(1,0,0,1,-2.30038e-12,613.719)">
            <g transform="matrix(6.12323e-17,1,-1,6.12323e-17,1122.05,-306.859)">
                <path d="M511.432,413.386L613.719,354.331L716.005,413.386L716.005,531.496L613.719,590.551L511.432,531.496L511.432,413.386Z" style="fill:none;stroke:black;stroke-width:2.98px;"/>
            </g>
            <g transform="matrix(6.12323e-17,1,-1,6.12323e-17,1299.21,-204.573)">
                <path d="M511.432,413.386L613.719,354.331L716.005,413.386L716.005,531.496L613.719,590.551L511.432,531.496L511.432,413.386Z" style="fill:none;stroke:black;stroke-width:2.98px;"/>
            </g>
            <g transform="matrix(6.12323e-17,1,-1,6.12323e-17,1122.05,-102.286)">
                <path d="M511.432,413.386L613.719,354.331L716.005,413.386L716.005,531.496L613.719,590.551L511.432,531.496L511.432,413.386Z" style="fill:none;stroke:black;stroke-width:2.98px;"/>
            </g>
            <g transform="matrix(6.12323e-17,1,-1,6.12323e-17,944.882,-7.95808e-13)">
                <path d="M511.432,413.386L613.719,354.331L716.005,413.386L716.005,531.496L613.719,590.551L511.432,531.496L511.432,413.386Z" style="fill:none;stroke:black;stroke-width:2.98px;"/>
            </g>
            <g transform="matrix(6.12323e-17,1,-1,6.12323e-17,1122.05,102.286)">
                <path d="M511.432,413.386L613.719,354.331L716.005,413.386L716.005,531.496L613.719,590.551L511.432,531.496L511.432,413.386Z" style="fill:none;stroke:black;stroke-width:2.98px;"/>
            </g>
            <g transform="matrix(6.12323e-17,1,-1,6.12323e-17,1299.21,-1.19371e-12)">
                <path d="M511.432,413.386L613.719,354.331L716.005,413.386L716.005,531.496L613.719,590.551L511.432,531.496L511.432,413.386Z" style="fill:none;stroke:black;stroke-width:2.98px;"/>
            </g>
            <g transform="matrix(6.12323e-17,1,-1,6.12323e-17,944.882,-204.573)">
                <path d="M511.432,413.386L613.719,354.331L716.005,413.386L716.005,531.496L613.719,590.551L511.432,531.496L511.432,413.386Z" style="fill:none;stroke:black;stroke-width:2.98px;"/>
            </g>
            <g transform="matrix(1,0,0,1,-29.3374,36.0334)">
                <text x="649.606px" y="511.432px" style="font-family:'CenturyGothic-Bold', 'Century Gothic', sans-serif;font-weight:700;font-size:100.267px;">8</text>
            </g>
        </g>
    </g>
    <g id="G-2" serif:id="G 2" transform="matrix(1.39914,0,0,1.4001,-413.525,-250.977)">
        <g id="_7" serif:id="7" transform="matrix(1,0,0,1,885.827,306.859)">
            <g transform="matrix(6.12323e-17,1,-1,6.12323e-17,1122.05,-306.859)">
                <path d="M511.432,413.386L613.719,354.331L716.005,413.386L716.005,531.496L613.719,590.551L511.432,531.496L511.432,413.386Z" style="fill:none;stroke:black;stroke-width:2.98px;"/>
            </g>
            <g transform="matrix(6.12323e-17,1,-1,6.12323e-17,1299.21,-204.573)">
                <path d="M511.432,413.386L613.719,354.331L716.005,413.386L716.005,531.496L613.719,590.551L511.432,531.496L511.432,413.386Z" style="fill:none;stroke:black;stroke-width:2.98px;"/>
            </g>
            <g transform="matrix(6.12323e-17,1,-1,6.12323e-17,1122.05,-102.286)">
                <path d="M511.432,413.386L613.719,354.331L716.005,413.386L716.005,531.496L613.719,590.551L511.432,531.496L511.432,413.386Z" style="fill:none;stroke:black;stroke-width:2.98px;"/>
            </g>
            <g transform="matrix(6.12323e-17,1,-1,6.12323e-17,944.882,-7.95808e-13)">
                <path d="M511.432,413.386L613.719,354.331L716.005,413.386L716.005,531.496L613.719,590.551L511.432,531.496L511.432,413.386Z" style="fill:none;stroke:black;stroke-width:2.98px;"/>
            </g>
            <g transform="matrix(6.12323e-17,1,-1,6.12323e-17,1122.05,102.286)">
                <path d="M511.432,413.386L613.719,354.331L716.005,413.386L716.005,531.496L613.719,590.551L511.432,531.496L511.432,413.386Z" style="fill:none;stroke:black;stroke-width:2.98px;"/>
            </g>
            <g transform="matrix(6.12323e-17,1,-1,6.12323e-17,1299.21,-1.19371e-12)">
                <path d="M511.432,413.386L613.719,354.331L716.005,413.386L716.005,531.496L613.719,590.551L511.432,531.496L511.432,413.386Z" style="fill:none;stroke:black;stroke-width:2.98px;"/>
            </g>
            <g transform="matrix(6.12323e-17,1,-1,6.12323e-17,944.882,-204.573)">
                <path d="M511.432,413.386L613.719,354.331L716.005,413.386L716.005,531.496L613.719,590.551L511.432,531.496L511.432,413.386Z" style="fill:none;stroke:black;stroke-width:2.98px;"/>
            </g>
            <g transform="matrix(1,0,0,1,-29.3374,36.0334)">
                <text x="649.606px" y="511.432px" style="font-family:'CenturyGothic-Bold', 'Century Gothic', sans-serif;font-weight:700;font-size:100.267px;">7</text>
            </g>
        </g>
        <g id="_6" serif:id="6" transform="matrix(1,0,0,1,531.496,306.859)">
            <g transform="matrix(6.12323e-17,1,-1,6.12323e-17,1122.05,-306.859)">
                <path d="M511.432,413.386L613.719,354.331L716.005,413.386L716.005,531.496L613.719,590.551L511.432,531.496L511.432,413.386Z" style="fill:none;stroke:black;stroke-width:2.98px;"/>
            </g>
            <g transform="matrix(6.12323e-17,1,-1,6.12323e-17,1299.21,-204.573)">
                <path d="M511.432,413.386L613.719,354.331L716.005,413.386L716.005,531.496L613.719,590.551L511.432,531.496L511.432,413.386Z" style="fill:none;stroke:black;stroke-width:2.98px;"/>
            </g>
            <g transform="matrix(6.12323e-17,1,-1,6.12323e-17,1122.05,-102.286)">
                <path d="M511.432,413.386L613.719,354.331L716.005,413.386L716.005,531.496L613.719,590.551L511.432,531.496L511.432,413.386Z" style="fill:none;stroke:black;stroke-width:2.98px;"/>
            </g>
            <g transform="matrix(6.12323e-17,1,-1,6.12323e-17,944.882,-7.95808e-13)">
                <path d="M511.432,413.386L613.719,354.331L716.005,413.386L716.005,531.496L613.719,590.551L511.432,531.496L511.432,413.386Z" style="fill:none;stroke:black;stroke-width:2.98px;"/>
            </g>
            <g transform="matrix(6.12323e-17,1,-1,6.12323e-17,1122.05,102.286)">
                <path d="M511.432,413.386L613.719,354.331L716.005,413.386L716.005,531.496L613.719,590.551L511.432,531.496L511.432,413.386Z" style="fill:none;stroke:black;stroke-width:2.98px;"/>
            </g>
            <g transform="matrix(6.12323e-17,1,-1,6.12323e-17,1299.21,-1.19371e-12)">
                <path d="M511.432,413.386L613.719,354.331L716.005,413.386L716.005,531.496L613.719,590.551L511.432,531.496L511.432,413.386Z" style="fill:none;stroke:black;stroke-width:2.98px;"/>
            </g>
            <g transform="matrix(6.12323e-17,1,-1,6.12323e-17,944.882,-204.573)">
                <path d="M511.432,413.386L613.719,354.331L716.005,413.386L716.005,531.496L613.719,590.551L511.432,531.496L511.432,413.386Z" style="fill:none;stroke:black;stroke-width:2.98px;"/>
            </g>
            <g transform="matrix(1,0,0,1,-29.3374,36.0334)">
                <text x="649.606px" y="511.432px" style="font-family:'CenturyGothic-Bold', 'Century Gothic', sans-serif;font-weight:700;font-size:100.267px;">6</text>
            </g>
        </g>
        <g id="_5" serif:id="5" transform="matrix(1,0,0,1,177.165,306.859)">
            <g transform="matrix(6.12323e-17,1,-1,6.12323e-17,1122.05,-306.859)">
                <path d="M511.432,413.386L613.719,354.331L716.005,413.386L716.005,531.496L613.719,590.551L511.432,531.496L511.432,413.386Z" style="fill:none;stroke:black;stroke-width:2.98px;"/>
            </g>
            <g transform="matrix(6.12323e-17,1,-1,6.12323e-17,1299.21,-204.573)">
                <path d="M511.432,413.386L613.719,354.331L716.005,413.386L716.005,531.496L613.719,590.551L511.432,531.496L511.432,413.386Z" style="fill:none;stroke:black;stroke-width:2.98px;"/>
            </g>
            <g transform="matrix(6.12323e-17,1,-1,6.12323e-17,1122.05,-102.286)">
                <path d="M511.432,413.386L613.719,354.331L716.005,413.386L716.005,531.496L613.719,590.551L511.432,531.496L511.432,413.386Z" style="fill:none;stroke:black;stroke-width:2.98px;"/>
            </g>
            <g transform="matrix(6.12323e-17,1,-1,6.12323e-17,944.882,-7.95808e-13)">
                <path d="M511.432,413.386L613.719,354.331L716.005,413.386L716.005,531.496L613.719,590.551L511.432,531.496L511.432,413.386Z" style="fill:none;stroke:black;stroke-width:2.98px;"/>
            </g>
            <g transform="matrix(6.12323e-17,1,-1,6.12323e-17,1122.05,102.286)">
                <path d="M511.432,413.386L613.719,354.331L716.005,413.386L716.005,531.496L613.719,590.551L511.432,531.496L511.432,413.386Z" style="fill:none;stroke:black;stroke-width:2.98px;"/>
            </g>
            <g transform="matrix(6.12323e-17,1,-1,6.12323e-17,1299.21,-1.19371e-12)">
                <path d="M511.432,413.386L613.719,354.331L716.005,413.386L716.005,531.496L613.719,590.551L511.432,531.496L511.432,413.386Z" style="fill:none;stroke:black;stroke-width:2.98px;"/>
            </g>
            <g transform="matrix(6.12323e-17,1,-1,6.12323e-17,944.882,-204.573)">
                <path d="M511.432,413.386L613.719,354.331L716.005,413.386L716.005,531.496L613.719,590.551L511.432,531.496L511.432,413.386Z" style="fill:none;stroke:black;stroke-width:2.98px;"/>
            </g>
            <g transform="matrix(1,0,0,1,-29.3374,36.0334)">
                <text x="649.606px" y="511.432px" style="font-family:'CenturyGothic-Bold', 'Century Gothic', sans-serif;font-weight:700;font-size:100.267px;">5</text>
            </g>
        </g>
    </g>
    <g id="G-1" serif:id="G 1" transform="matrix(1.39914,0,0,1.4001,-413.525,-250.977)">
        <g id="_4" serif:id="4" transform="matrix(1,0,0,1,1062.99,1.36446e-12)">
            <g transform="matrix(6.12323e-17,1,-1,6.12323e-17,1122.05,-306.859)">
                <path d="M511.432,413.386L613.719,354.331L716.005,413.386L716.005,531.496L613.719,590.551L511.432,531.496L511.432,413.386Z" style="fill:none;stroke:black;stroke-width:2.98px;"/>
            </g>
            <g transform="matrix(6.12323e-17,1,-1,6.12323e-17,1299.21,-204.573)">
                <path d="M511.432,413.386L613.719,354.331L716.005,413.386L716.005,531.496L613.719,590.551L511.432,531.496L511.432,413.386Z" style="fill:none;stroke:black;stroke-width:2.98px;"/>
            </g>
            <g transform="matrix(6.12323e-17,1,-1,6.12323e-17,1122.05,-102.286)">
                <path d="M511.432,413.386L613.719,354.331L716.005,413.386L716.005,531.496L613.719,590.551L511.432,531.496L511.432,413.386Z" style="fill:none;stroke:black;stroke-width:2.98px;"/>
            </g>
            <g transform="matrix(6.12323e-17,1,-1,6.12323e-17,944.882,-7.95808e-13)">
                <path d="M511.432,413.386L613.719,354.331L716.005,413.386L716.005,531.496L613.719,590.551L511.432,531.496L511.432,413.386Z" style="fill:none;stroke:black;stroke-width:2.98px;"/>
            </g>
            <g transform="matrix(6.12323e-17,1,-1,6.12323e-17,1122.05,102.286)">
                <path d="M511.432,413.386L613.719,354.331L716.005,413.386L716.005,531.496L613.719,590.551L511.432,531.496L511.432,413.386Z" style="fill:none;stroke:black;stroke-width:2.98px;"/>
            </g>
            <g transform="matrix(6.12323e-17,1,-1,6.12323e-17,1299.21,-1.19371e-12)">
                <path d="M511.432,413.386L613.719,354.331L716.005,413.386L716.005,531.496L613.719,590.551L511.432,531.496L511.432,413.386Z" style="fill:none;stroke:black;stroke-width:2.98px;"/>
            </g>
            <g transform="matrix(6.12323e-17,1,-1,6.12323e-17,944.882,-204.573)">
                <path d="M511.432,413.386L613.719,354.331L716.005,413.386L716.005,531.496L613.719,590.551L511.432,531.496L511.432,413.386Z" style="fill:none;stroke:black;stroke-width:2.98px;"/>
            </g>
            <g transform="matrix(1,0,0,1,-29.3374,36.0334)">
                <text x="649.606px" y="511.432px" style="font-family:'CenturyGothic-Bold', 'Century Gothic', sans-serif;font-weight:700;font-size:100.267px;">4</text>
            </g>
        </g>
        <g id="_3" serif:id="3" transform="matrix(1,0,0,1,708.661,-5.66214e-14)">
            <g transform="matrix(6.12323e-17,1,-1,6.12323e-17,1122.05,-306.859)">
                <path d="M511.432,413.386L613.719,354.331L716.005,413.386L716.005,531.496L613.719,590.551L511.432,531.496L511.432,413.386Z" style="fill:none;stroke:black;stroke-width:2.98px;"/>
            </g>
            <g transform="matrix(6.12323e-17,1,-1,6.12323e-17,1299.21,-204.573)">
                <path d="M511.432,413.386L613.719,354.331L716.005,413.386L716.005,531.496L613.719,590.551L511.432,531.496L511.432,413.386Z" style="fill:none;stroke:black;stroke-width:2.98px;"/>
            </g>
            <g transform="matrix(6.12323e-17,1,-1,6.12323e-17,1122.05,-102.286)">
                <path d="M511.432,413.386L613.719,354.331L716.005,413.386L716.005,531.496L613.719,590.551L511.432,531.496L511.432,413.386Z" style="fill:none;stroke:black;stroke-width:2.98px;"/>
            </g>
            <g transform="matrix(6.12323e-17,1,-1,6.12323e-17,944.882,-7.95808e-13)">
                <path d="M511.432,413.386L613.719,354.331L716.005,413.386L716.005,531.496L613.719,590.551L511.432,531.496L511.432,413.386Z" style="fill:none;stroke:black;stroke-width:2.98px;"/>
            </g>
            <g transform="matrix(6.12323e-17,1,-1,6.12323e-17,1122.05,102.286)">
                <path d="M511.432,413.386L613.719,354.331L716.005,413.386L716.005,531.496L613.719,590.551L511.432,531.496L511.432,413.386Z" style="fill:none;stroke:black;stroke-width:2.98px;"/>
            </g>
            <g transform="matrix(6.12323e-17,1,-1,6.12323e-17,1299.21,-1.19371e-12)">
                <path d="M511.432,413.386L613.719,354.331L716.005,413.386L716.005,531.496L613.719,590.551L511.432,531.496L511.432,413.386Z" style="fill:none;stroke:black;stroke-width:2.98px;"/>
            </g>
            <g transform="matrix(6.12323e-17,1,-1,6.12323e-17,944.882,-204.573)">
                <path d="M511.432,413.386L613.719,354.331L716.005,413.386L716.005,531.496L613.719,590.551L511.432,531.496L511.432,413.386Z" style="fill:none;stroke:black;stroke-width:2.98px;"/>
            </g>
            <g transform="matrix(1,0,0,1,-29.3374,36.0334)">
                <text x="649.606px" y="511.432px" style="font-family:'CenturyGothic-Bold', 'Century Gothic', sans-serif;font-weight:700;font-size:100.267px;">3</text>
            </g>
        </g>
        <g id="_2" serif:id="2" transform="matrix(1,0,0,1,354.331,1.19371e-12)">
            <g transform="matrix(6.12323e-17,1,-1,6.12323e-17,1122.05,-306.859)">
                <path d="M511.432,413.386L613.719,354.331L716.005,413.386L716.005,531.496L613.719,590.551L511.432,531.496L511.432,413.386Z" style="fill:none;stroke:black;stroke-width:2.98px;"/>
            </g>
            <g transform="matrix(6.12323e-17,1,-1,6.12323e-17,1299.21,-204.573)">
                <path d="M511.432,413.386L613.719,354.331L716.005,413.386L716.005,531.496L613.719,590.551L511.432,531.496L511.432,413.386Z" style="fill:none;stroke:black;stroke-width:2.98px;"/>
            </g>
            <g transform="matrix(6.12323e-17,1,-1,6.12323e-17,1122.05,-102.286)">
                <path d="M511.432,413.386L613.719,354.331L716.005,413.386L716.005,531.496L613.719,590.551L511.432,531.496L511.432,413.386Z" style="fill:none;stroke:black;stroke-width:2.98px;"/>
            </g>
            <g transform="matrix(6.12323e-17,1,-1,6.12323e-17,944.882,-7.95808e-13)">
                <path d="M511.432,413.386L613.719,354.331L716.005,413.386L716.005,531.496L613.719,590.551L511.432,531.496L511.432,413.386Z" style="fill:none;stroke:black;stroke-width:2.98px;"/>
            </g>
            <g transform="matrix(6.12323e-17,1,-1,6.12323e-17,1122.05,102.286)">
                <path d="M511.432,413.386L613.719,354.331L716.005,413.386L716.005,531.496L613.719,590.551L511.432,531.496L511.432,413.386Z" style="fill:none;stroke:black;stroke-width:2.98px;"/>
            </g>
            <g transform="matrix(6.12323e-17,1,-1,6.12323e-17,1299.21,-1.19371e-12)">
                <path d="M511.432,413.386L613.719,354.331L716.005,413.386L716.005,531.496L613.719,590.551L511.432,531.496L511.432,413.386Z" style="fill:none;stroke:black;stroke-width:2.98px;"/>
            </g>
            <g transform="matrix(6.12323e-17,1,-1,6.12323e-17,944.882,-204.573)">
                <path d="M511.432,413.386L613.719,354.331L716.005,413.386L716.005,531.496L613.719,590.551L511.432,531.496L511.432,413.386Z" style="fill:none;stroke:black;stroke-width:2.98px;"/>
            </g>
            <g transform="matrix(1,0,0,1,-29.3374,36.0334)">
                <text x="649.606px" y="511.432px" style="font-family:'CenturyGothic-Bold', 'Century Gothic', sans-serif;font-weight:700;font-size:100.267px;">2</text>
            </g>
        </g>
        <g id="_1" serif:id="1">
            <g transform="matrix(6.12323e-17,1,-1,6.12323e-17,1122.05,-306.859)">
                <path d="M511.432,413.386L613.719,354.331L716.005,413.386L716.005,531.496L613.719,590.551L511.432,531.496L511.432,413.386Z" style="fill:none;stroke:black;stroke-width:2.98px;"/>
            </g>
            <g transform="matrix(6.12323e-17,1,-1,6.12323e-17,1299.21,-204.573)">
                <path d="M511.432,413.386L613.719,354.331L716.005,413.386L716.005,531.496L613.719,590.551L511.432,531.496L511.432,413.386Z" style="fill:none;stroke:black;stroke-width:2.98px;"/>
            </g>
            <g transform="matrix(6.12323e-17,1,-1,6.12323e-17,1122.05,-102.286)">
                <path d="M511.432,413.386L613.719,354.331L716.005,413.386L716.005,531.496L613.719,590.551L511.432,531.496L511.432,413.386Z" style="fill:none;stroke:black;stroke-width:2.98px;"/>
            </g>
            <g transform="matrix(6.12323e-17,1,-1,6.12323e-17,944.882,-7.95808e-13)">
                <path d="M511.432,413.386L613.719,354.331L716.005,413.386L716.005,531.496L613.719,590.551L511.432,531.496L511.432,413.386Z" style="fill:none;stroke:black;stroke-width:2.98px;"/>
            </g>
            <g transform="matrix(6.12323e-17,1,-1,6.12323e-17,1122.05,102.286)">
                <path d="M511.432,413.386L613.719,354.331L716.005,413.386L716.005,531.496L613.719,590.551L511.432,531.496L511.432,413.386Z" style="fill:none;stroke:black;stroke-width:2.98px;"/>
            </g>
            <g transform="matrix(6.12323e-17,1,-1,6.12323e-17,1299.21,-1.19371e-12)">
                <path d="M511.432,413.386L613.719,354.331L716.005,413.386L716.005,531.496L613.719,590.551L511.432,531.496L511.432,413.386Z" style="fill:none;stroke:black;stroke-width:2.98px;"/>
            </g>
            <g transform="matrix(6.12323e-17,1,-1,6.12323e-17,944.882,-204.573)">
                <path d="M511.432,413.386L613.719,354.331L716.005,413.386L716.005,531.496L613.719,590.551L511.432,531.496L511.432,413.386Z" style="fill:none;stroke:black;stroke-width:2.98px;"/>
            </g>
            <g transform="matrix(1,0,0,1,-29.3374,36.0334)">
                <text x="649.606px" y="511.432px" style="font-family:'CenturyGothic-Bold', 'Century Gothic', sans-serif;font-weight:700;font-size:100.267px;">1</text>
            </g>
        </g>
    </g>
</svg>
